<svg width="425" height="425" viewBox="0 0 425 425" fill="none" xmlns="http://www.w3.org/2000/svg">
<rect width="425" height="425" rx="12" fill="#EEEEEE"/>
<path d="M216.976 137.305C217.219 142.152 213.576 146.318 208.741 146.743C198.869 147.611 189.036 148.544 179.241 149.54C169.228 150.398 159.132 151.462 148.952 152.732C144.531 153.283 141.215 157.023 141.146 161.477L141.029 169.116C140.946 174.48 145.545 178.725 150.885 178.214L182.363 175.203C187.333 174.727 191.75 178.388 192.089 183.369C192.376 187.589 192.595 191.773 192.748 195.92C193.14 203.005 193.335 210.198 193.335 217.499C193.335 220.505 193.27 223.618 193.14 226.839C193.14 227.717 193.14 228.587 193.14 229.45C193.14 233.44 190.512 236.954 186.684 238.082L153.123 247.976C149.059 249.174 146.381 253.044 146.692 257.269L148.413 280.676C148.786 285.754 153.296 289.523 158.342 288.838C165.144 287.915 171.914 286.788 178.654 285.457C185.45 283.986 192.276 282.666 199.133 281.497C204.255 280.624 208.977 284.362 209.415 289.539C210.058 297.143 210.701 304.801 211.344 312.512C211.947 319.59 212.719 326.576 213.662 333.467C214.42 339.012 210.128 344.015 204.532 343.975C189.622 343.869 174.797 343.902 160.058 344.075C144.795 344.434 129.442 344.643 113.997 344.702C108.972 344.721 104.92 340.604 105.001 335.579C105.359 313.528 105.767 291.56 106.226 269.675C106.748 244.768 107.009 219.646 107.009 194.309V188.19C107.009 173.589 106.879 159.095 106.618 144.709C106.412 133.185 106.206 121.594 106 109.936C105.909 104.83 110.08 100.676 115.186 100.75C122.345 100.854 129.472 100.907 136.567 100.907C146.877 100.692 157.252 100.585 167.692 100.585C175.652 100.585 183.548 100.907 191.378 101.551C196.715 101.839 202.053 102.175 207.39 102.559C211.895 102.884 215.429 106.533 215.656 111.043L216.976 137.305Z" fill="#15616D"/>
<path d="M338.377 330.72C338.946 335.248 336.045 339.491 331.616 340.593L318.861 343.769C313.847 345.017 308.814 341.797 307.841 336.722C306.349 328.939 304.856 321.211 303.364 313.538C301.777 305.213 300.227 296.889 298.715 288.565C297.9 284.073 293.861 280.892 289.304 281.167L256.48 283.143C252.209 283.4 248.71 286.628 248.11 290.864L244.169 318.683C243.54 323.122 239.74 326.421 235.258 326.421H222.389C217.241 326.421 213.142 322.112 213.402 316.971C215.081 283.654 216.815 250.517 218.604 217.558C220.444 183.641 222.227 149.63 223.952 115.523C224.148 111.641 226.811 108.312 230.577 107.353C237.848 105.502 245.08 103.91 252.273 102.577C261.669 100.859 271.13 100 280.657 100C289.69 100 298.724 100.195 307.757 100.585C312.209 100.777 315.808 104.249 316.22 108.685C318.054 128.443 319.837 148.201 321.569 167.958C323.657 190.074 325.81 212.298 328.029 234.629C329.595 252.235 331.291 269.628 333.118 286.805C334.777 301.366 336.531 316.005 338.377 330.72ZM281.229 237.278C286.281 237.061 290.114 232.729 289.611 227.697C289.564 227.231 289.516 226.75 289.466 226.255C288.944 220.887 288.356 215.304 287.704 209.506C287.051 203.494 286.268 198.126 285.355 193.403C284.691 189.216 284.027 186.496 283.364 185.241C283.163 184.861 282.835 184.565 282.43 184.422C282.091 184.302 281.631 184.182 281.048 184.062C280.135 183.848 279.091 183.633 277.916 183.418C276.872 183.203 275.828 183.096 274.784 183.096C273.74 183.096 273.022 183.096 272.631 183.096C271.978 183.096 271.065 183.096 269.89 183.096C269.044 183.096 268.112 183.167 267.094 183.308C266.609 183.375 266.12 183.409 265.632 183.446C264.703 183.517 263.773 183.722 262.843 184.062C262.437 184.23 262.08 184.413 261.772 184.613C260.924 185.164 260.416 186.117 260.199 187.105C260.05 187.785 259.887 188.704 259.711 189.86C259.32 192.436 258.798 195.657 258.145 199.522C257.623 203.172 257.036 207.145 256.384 211.439C255.862 215.733 255.34 219.813 254.818 223.678C254.296 227.543 253.839 230.871 253.447 233.662C253.226 236.031 255.349 238.387 257.725 238.285L281.229 237.278Z" fill="#001524"/>
</svg>
